<?xml version="1.0" encoding="utf-8"?>
<!-- Generator: Adobe Illustrator 16.0.2, SVG Export Plug-In . SVG Version: 6.00 Build 0)  -->
<svg version="1.2" baseProfile="tiny" id="Layer_1" xmlns="http://www.w3.org/2000/svg" xmlns:xlink="http://www.w3.org/1999/xlink"
	 x="0px" y="0px" width="960px" height="560px" viewBox="0 0 960 560" xml:space="preserve">
<g>
	<g>
		<path fill-rule="evenodd" fill="none" d="M296.235,277.622c0-89.089,0.008-178.178-0.055-267.267
			c-0.001-1.9,0.508-2.105,2.211-2.105C420.407,8.297,542.424,8.298,664.44,8.243c1.803,0,2.156,0.363,2.155,2.16
			c-0.052,178.104-0.053,356.208,0.011,534.312c0.001,2.005-0.571,2.213-2.325,2.213c-122.017-0.044-244.033-0.044-366.05,0.002
			c-1.668,0.001-2.038-0.381-2.037-2.041C296.241,455.8,296.235,366.711,296.235,277.622z"/>
		<path fill-rule="evenodd" fill="#3C1B12" d="M480.335,10.977c9.856-0.175,18.493,0.468,27.144,1.671
			c11.066,1.539,21.877,4.06,32.384,7.7c16.947,5.872,32.804,13.933,47.307,24.601c5.976,4.396,11.662,9.084,17.164,14.059
			c11.236,10.162,20.715,21.78,28.948,34.417c5.986,9.188,11.024,18.892,15.157,29.097c3.688,9.106,6.755,18.38,9.006,27.918
			c1.271,5.39,2.168,10.863,2.927,16.364c1.365,9.888,2.098,19.818,1.659,29.771c-0.318,7.243-1.033,14.47-2.021,21.688
			c-1.752,12.802-5.488,25.023-9.414,37.251c-4.546,14.159-9.844,28.02-15.684,41.683c-3.994,9.348-8.384,18.513-12.702,27.713
			c-3.63,7.733-7.652,15.253-11.6,22.813c-6.466,12.384-13.344,24.542-20.378,36.619c-7.756,13.316-15.813,26.441-24.024,39.476
			c-7.918,12.566-16.034,25.004-24.425,37.26c-9.218,13.464-18.56,26.839-28.1,40.082c-8.04,11.163-16.429,22.063-24.482,33.213
			c-2.072,2.869-4.383,5.564-6.54,8.374c-0.905,1.179-1.65,1.173-2.539-0.006c-5.34-7.083-10.745-14.116-16.043-21.229
			c-6.411-8.607-12.777-17.249-19.09-25.93c-4.017-5.523-7.979-11.092-11.828-16.734c-8.375-12.276-16.78-24.535-24.952-36.947
			c-7.961-12.091-15.646-24.36-23.232-36.695c-6.159-10.015-12.011-20.205-17.991-30.32c-3.389-5.731-6.425-11.67-9.636-17.506
			c-5.463-9.932-10.862-19.907-15.737-30.135c-5.537-11.615-11.034-23.254-15.885-35.192c-4.195-10.323-8.341-20.655-11.745-31.268
			c-2.814-8.773-6.09-17.406-8.148-26.41c-1.411-6.174-2.664-12.371-3.432-18.675c-0.626-5.14-0.95-10.292-1.391-15.439
			c-0.462-5.387-0.53-10.77-0.238-16.106c0.466-8.525,1.383-17.019,2.921-25.463c2.384-13.095,6.223-25.695,11.322-37.956
			c4.726-11.362,10.699-22.044,17.68-32.144c3.741-5.411,7.747-10.642,12.176-15.547c3.389-3.754,6.645-7.633,10.314-11.118
			c7.167-6.808,14.724-13.155,22.83-18.826c6.94-4.856,14.184-9.251,21.762-13.008c10.895-5.401,22.165-9.854,33.965-13
			c6.532-1.742,13.112-3.195,19.757-4.256c4.5-0.718,9.078-1.129,13.64-1.544C471.937,10.854,476.705,11.225,480.335,10.977z"/>
		<path fill-rule="evenodd" fill="#E5E5E5" d="M642.13,220.352c-0.474,36.829-13.269,76.162-41.113,110.028
			c-23.707,28.834-53.692,47.953-90.535,55.142c-39.115,7.631-75.8,0.485-109.328-20.98c-36.626-23.448-60.519-56.838-72.079-98.468
			c-15.826-56.993-7.698-110.691,26.291-159.517c21.855-31.396,51.376-53.001,88.67-62.616
			c45.177-11.648,87.202-3.529,125.175,23.363c35.385,25.06,57.03,59.69,67.553,101.483
			C640.458,183.466,642.119,198.468,642.13,220.352z"/>
		<path fill-rule="evenodd" fill="#3C1B12" d="M324.205,209.168c0.706-41.365,14.797-82.061,45.542-116.313
			c23.245-25.896,51.921-42.809,86.34-48.869c40.407-7.114,77.669,1.51,111.094,25.158c34.691,24.543,56.599,58.202,66.584,99.257
			c12.376,50.889,5.27,99.189-22.81,143.663c-20.73,32.836-49.486,56.271-87.036,67.254c-48.991,14.33-94.053,4.988-134.156-26.222
			c-32.453-25.258-51.949-59.016-61.091-98.905C325.604,240.804,324.284,227.208,324.205,209.168z"/>
		<path fill-rule="evenodd" fill="#FEFEFE" d="M549.338,156.162c11.037-12.628,21.937-25.376,33.225-37.782
			c1.688-1.905,3.605-3.599,5.134-5.654c0.253-0.341,0.686-0.97,1.217-0.338c0.345,0.411-0.039,0.827-0.335,1.138
			c-1.057,1.111-1.936,2.357-2.808,3.611c-5.851,7.43-11.694,14.867-17.556,22.289c-6.783,8.588-13.32,17.359-19.61,26.314
			c-0.546,0.777-1.184,1.604-0.96,2.636c0.257,1.182,0.759,2.271,2.006,2.741c1.334,0.504,2.088-0.442,2.802-1.275
			c6.739-7.859,13.479-15.719,20.177-23.615c6.076-7.165,12.081-14.392,18.163-21.553c1.003-1.181,1.616-2.664,2.887-3.624
			c0.68-0.947,1.705-1.606,2.232-2.68l-0.009,0.01c0.429-0.301,0.682-1.219,1.316-0.768c0.669,0.475-0.068,0.982-0.333,1.441
			c-0.681,1.181-1.56,2.232-2.222,3.425c-12.877,18.446-25.151,37.321-39.108,55c-3.546,4.489-7.425,8.604-12.598,11.277
			c-1.115,0.101-1.956,1.138-3.162,0.921c-1.822,0.569-3.699,0.753-5.593,0.894c-2.559,0.19-5.015,0.82-7.322,1.969
			c-1.787,0.536-3.672,0.854-5.081,2.248c-3.951,3.173-7.074,7.143-10.363,10.935c-5.139,5.923-10.137,11.968-15.158,17.992
			c-2.179,2.613-2.934,2.305-0.164,5.829c10.522,13.391,21.581,26.301,33.938,38.035c8.63,8.194,17.559,16.07,26.83,23.544
			c5.209,4.399,10.611,8.586,15.114,13.762c0.438,0.595,0.875,1.189,1.313,1.783c3.975,4.979,4.428,10.678,3.408,16.676
			c-0.553,1.759-0.856,3.586-1.436,5.339c-0.613,3.063-2.182,5.405-5.083,6.743c-1.904,0.556-3.652,1.519-5.582,2.027
			c-4.855,1.279-9.117,0.491-12.783-3.151c-2.097-2.084-3.817-4.458-5.681-6.723c-1.241-1.336-2.072-2.952-3.046-4.472
			c-1.463-2.525-2.895-5.071-4.438-7.551c-12.018-20.817-24.967-41.035-39.223-60.394c-3.939-5.35-8.221-10.452-12.427-15.601
			c-1.892-2.315-2.06-2.278-3.896,0.017c-4.016,5.018-7.98,10.077-11.966,15.119c-1.915,2.677-3.864,5.329-5.806,7.985
			c-6.414,8.851-12.224,18.105-18.225,27.232c-7.388,11.236-13.882,23.005-20.825,34.507c-0.379,0.628-0.833,1.212-1.253,1.815
			c-2.261,2.693-4.049,5.777-6.689,8.154c-3.394,3.055-7.122,4.864-11.855,3.361c-3.659-1.16-7.333-2.223-9.947-5.31
			c-0.129-0.159-0.259-0.317-0.388-0.477c-0.88-1.661-1.546-3.407-2.061-5.215c-1.229-4.571-2.052-9.158-0.608-13.845l-0.001,0.005
			c0.332-1.451,0.908-2.794,1.776-4.006c3.749-5.893,8.92-10.418,14.282-14.735c17.982-14.481,34.979-30.046,51.208-46.457
			c2.18-2.205,4.246-4.523,6.365-6.789c2.67-2.642,4.937-5.641,7.453-8.416c0.885-0.976,0.807-1.572-0.154-2.317
			c-1.339-1.038-2.85-1.802-4.27-2.707c-5.896-3.763-11.822-7.474-16.531-12.765c-0.596-0.67-1.453-1.011-1.993-1.729
			c-6.644-6.624-12.918-13.594-19.154-20.596c-8.404-9.437-16.648-19.015-24.396-29.002c-7.887-10.167-15.454-20.558-21.276-32.099
			c-0.294-0.594-0.382-1.291-0.881-1.783l0,0c-2.196-4.52-3.238-9.383-4.246-14.258c-0.658-3.571-1.246-7.147,0.402-10.623
			c1.775-3.744,4.414-4.226,7.522-1.399c0.383,0.348,0.768,0.692,1.178,1.007c13.608,15.388,27.193,30.797,40.833,46.157
			c13.057,14.705,26.13,29.396,38.839,44.404c5.639,6.659,10.462,13.951,15.582,21.009c0.871,1.201,1.44,1.695,2.624,0.267
			c7.545-9.113,15.269-18.074,22.5-27.448c3.464-4.492,4.472-9.765,5.391-15.053c0.844-4.859,0.767-9.855,2.46-14.602
			c1.338-3.75,3.313-7.082,5.78-10.149c9.484-11.785,20.529-22.078,31.271-32.659c5.423-5.342,10.87-10.66,16.307-15.989
			c1.539-0.915,2.549-2.41,3.88-3.552c0.71-0.609,1.296-0.872,1.086,0.512l0.008-0.009c-0.692,0.936-1.678,1.624-2.247,2.663
			c-9.396,11.211-18.801,22.415-28.182,33.639c-4.026,4.818-8.003,9.679-11.994,14.526c-0.422,0.512-0.852,1.032-1.178,1.606
			c-0.923,1.626-0.433,2.986,0.921,4.108c1.314,1.091,2.358,0.33,3.279-0.608c4.035-4.107,8.101-8.189,12.052-12.377
			c7.301-7.738,14.224-15.813,21.093-23.933c1.092-1.29,2.316-2.467,3.479-3.697c0.399-0.332,0.611-0.846,1.039-1.137
			c0.543-0.371,0.933-1.566,1.693-0.861c0.666,0.616-0.27,1.385-0.671,1.87c-5.381,6.507-10.41,13.292-15.698,19.873
			c-1.376,1.712-2.743,3.438-4.008,5.239c-4.961,6.815-10.371,13.278-15.588,19.893c-0.412,0.679-1.025,1.197-1.199,2.07
			c-0.296,1.482,0.704,2.182,1.592,2.909c0.993,0.813,1.633-0.089,2.213-0.713C545.777,160.217,547.685,158.302,549.338,156.162z"/>
		<path fill-rule="evenodd" fill="#DED8D7" d="M556.924,138.036c0.729-2.226,2.498-3.738,3.866-5.506
			c5.135-6.635,10.366-13.194,15.549-19.792c0.345-0.439,0.589-0.958,0.996-1.634c-1.373,0.326-1.644,1.733-2.767,1.949
			c2.195-3.209,4.724-6.141,7.429-8.926c0.581-0.222,0.763-0.903,1.308-1.152c0.421-0.191,0.895-0.366,0.718,0.447
			c-8.112,11.34-17.055,22.04-25.551,33.084C558.033,137.076,557.673,137.763,556.924,138.036z"/>
		<path fill-rule="evenodd" fill="#BDB2AF" d="M451.634,212.99c0.837,0.19,1.42,0.766,1.968,1.359
			c5.729,6.196,12.824,10.546,19.996,14.787c2.546,1.505,2.644,2.056,0.591,4.27c-2.338,2.521-4.181,5.506-7.061,7.519
			c1.848-2.947,4.317-5.394,6.678-7.888c1.552-1.639,1.089-2.299-0.505-3.243c-5.075-3.007-10.068-6.16-14.681-9.843
			C456.053,217.899,453.561,215.713,451.634,212.99z"/>
		<path fill-rule="evenodd" fill="#C8BFBC" d="M396.557,332.441c3.24,2.682,6.951,4.411,11.07,5.146
			c5.557,0.991,9.412-1.85,12.805-5.816c1.563-1.827,2.502-4.176,4.617-5.535c-2.644,4.596-5.817,8.688-10.602,11.276
			c-0.735,0.397-1.496,0.626-2.314,0.702c-1.484,0.614-2.966,0.65-4.445-0.021c-3.685-0.395-6.968-1.777-9.882-4.05
			C397.235,333.697,396.573,333.301,396.557,332.441z"/>
		<path fill-rule="evenodd" fill="#D1CAC7" d="M546.153,327.576c1.538,0.857,2.291,2.429,3.311,3.736
			c5.218,6.692,10.906,8.06,18.675,4.436c0.654-0.306,1.397-0.421,2.1-0.624c0.169,0.483-0.23,0.621-0.507,0.833
			c-2.688,1.244-5.438,2.18-8.447,2.365c-3.441,0.213-6.395-0.743-8.885-3.115C550.002,332.923,547.661,330.589,546.153,327.576z"/>
		<path fill-rule="evenodd" fill="#88756F" d="M390.784,104.238c-0.856-0.007-1.212-0.779-1.777-1.209
			c-2.824-2.148-5.322-1.506-6.692,1.776c-1.438,3.446-0.913,6.964-0.37,10.481c0.285,0.616,0.338,1.226-0.042,1.826
			c-1.289-4.051-1.889-8.115-0.289-12.238c0.755-1.945,1.878-3.856,4.055-3.885C387.809,100.961,389.708,102.16,390.784,104.238z"/>
		<path fill-rule="evenodd" fill="#BCB0AD" d="M571.997,304.882c-2.862-2.635-5.753-5.24-8.578-7.914
			c-2.126-2.012-4.811-3.395-6.536-5.848c4.871,3.167,9.098,7.095,13.109,11.256C570.722,303.132,571.847,303.64,571.997,304.882z"
			/>
		<path fill-rule="evenodd" fill="#D7D0CE" d="M585.771,117.136c0.398-1.866,2.07-2.897,2.828-4.574
			c-2.251,1.686-3.558,4.381-6.036,5.817c1.868-2.802,4.246-5.162,6.554-7.583c0.707-0.417,1.021-1.294,1.777-1.612
			c0.715-0.3,1.005-0.042,0.601,0.708C589.407,112.165,588.233,115.16,585.771,117.136z"/>
		<path fill-rule="evenodd" fill="#9D8D88" d="M549.338,156.162c-1.448,2.86-3.983,4.795-6.072,7.108
			c-0.513,0.567-1.218,0.561-1.771,0.013c-0.868-0.86-2.029-1.626-1.705-3.105c0.202-0.922,0.511-1.859,1.546-2.25
			c0.111,0.893-0.799,1.354-0.901,2.184c-0.139,1.123,0.452,1.828,1.248,2.397c1.002,0.716,1.624-0.077,2.228-0.708
			C545.714,159.916,547.24,157.764,549.338,156.162z"/>
		<path fill-rule="evenodd" fill="#B7ABA8" d="M576.374,323.509c-0.104-1.554,0.448-3.024,0.558-4.569
			c0.293-4.126-0.947-7.713-3.146-11.079c-0.239-0.365-0.563-0.699-0.477-1.195c1.953,1.524,2.909,3.751,3.473,5.97
			c1.04,4.093,1.13,8.274-0.293,12.363C576.042,324.533,576.156,324.025,576.374,323.509z"/>
		<path fill-rule="evenodd" fill="#917E79" d="M542.963,188.482c4.623-2.547,8.348-6.109,11.59-10.224
			c0.256-0.323,0.665-0.523,1.003-0.781c-2.966,4.769-6.871,8.537-11.855,11.16C543.409,188.799,543.163,188.748,542.963,188.482z"
			/>
		<path fill-rule="evenodd" fill="#CDC4C2" d="M577.337,97.135c-0.272-1.229-0.709-0.393-1.118-0.095
			c-1.341,0.974-1.998,2.787-3.848,3.135c1.967-2.47,4.35-4.526,6.634-6.682c0.351-0.194,0.741-0.279,0.928,0.146
			c0.208,0.472-0.179,0.816-0.439,1.163C578.584,95.405,578.497,96.766,577.337,97.135z"/>
		<path fill-rule="evenodd" fill="#79635D" d="M393.5,312.905c-0.768,4.779-0.337,9.483,0.89,14.138
			c0.232,0.367,0.259,0.717-0.086,1.035c-1.912-4.413-1.963-9.056-1.65-13.733C392.69,313.796,392.876,313.183,393.5,312.905z"/>
		<path fill-rule="evenodd" fill="#AB9C98" d="M526.484,192.476c1.127-1.049,2.644-1.352,4.01-1.63
			c3.137-0.64,6.345-0.925,9.524-1.354c0.135,0.096,0.177,0.188,0.128,0.277c-0.049,0.087-0.097,0.13-0.144,0.13
			c-0.122,0.043-0.248,0.061-0.377,0.056c-1.148,0.53-2.426,0.503-3.617,0.844c-3.055,0.051-5.95,0.896-8.837,1.778
			C526.909,192.774,526.68,192.741,526.484,192.476z"/>
		<path fill-rule="evenodd" fill="#B2A5A1" d="M381.903,117.113c0.014-0.608,0.028-1.217,0.042-1.826
			c0.979,4.839,2.428,9.546,3.982,14.224C383.513,125.726,382.638,121.442,381.903,117.113z"/>
		<path fill-rule="evenodd" fill="#D0C8C6" d="M594.664,122.478c0.271-1.792,1.836-2.868,2.541-4.641
			c-0.504,0.209-0.903,0.376-1.303,0.542c0.131-0.796,0.702-1.296,1.229-1.824c0.534-0.232,0.703-0.88,1.213-1.113
			c0.747-0.342,1.093-0.185,0.688,0.682C597.484,118.178,596.685,120.748,594.664,122.478z"/>
		<path fill-rule="evenodd" fill="#7D6761" d="M569.731,335.957c0.169-0.277,0.337-0.556,0.506-0.833
			c2.782-1.208,4.014-3.597,4.806-6.318c0.188-0.158,0.35-0.135,0.483,0.072C574.831,332.249,573.161,334.823,569.731,335.957z"/>
		<path fill-rule="evenodd" fill="#7A645E" d="M465.352,262.681c1.516-2.966,3.509-5.587,5.806-7.985
			C469.659,257.675,467.749,260.355,465.352,262.681z"/>
		<path fill-rule="evenodd" fill="#AB9D99" d="M538.67,315.554c1.986,2.22,3.364,4.796,4.438,7.551
			C541.195,320.843,539.724,318.321,538.67,315.554z"/>
		<path fill-rule="evenodd" fill="#C7BDBA" d="M591.494,109.891c-0.096-0.767-0.426-0.56-0.82-0.209
			c-0.479,0.425-0.809,1.064-1.557,1.114c0.943-1.304,1.847-2.645,3.249-3.525c0.436-0.076,0.618,0.108,0.555,0.542
			C592.787,108.74,592.146,109.32,591.494,109.891z"/>
		<path fill-rule="evenodd" fill="#B2A5A2" d="M526.484,192.476c0.229,0.033,0.458,0.066,0.688,0.1
			c-1.791,0.736-3.581,1.473-5.372,2.209C522.905,193.09,524.576,192.543,526.484,192.476z"/>
		<path fill-rule="evenodd" fill="#A99B97" d="M579.493,94.802c0.028-0.507,0.62-1.225-0.488-1.309
			c0.511-0.819,1.323-1.277,2.187-1.852C581.427,93.199,580.661,94.107,579.493,94.802z"/>
		<path fill-rule="evenodd" fill="#78615B" d="M407.688,338.192c1.482,0.008,2.963,0.015,4.445,0.021
			C410.645,339.556,409.163,339.556,407.688,338.192z"/>
		<path fill-rule="evenodd" fill="#CFC8C5" d="M575.526,328.878c-0.161-0.024-0.322-0.048-0.483-0.072
			c0.443-1.766,0.888-3.531,1.331-5.297c0.038,0.497,0.077,0.993,0.115,1.489C576.592,326.396,575.792,327.57,575.526,328.878z"/>
		<path fill-rule="evenodd" fill="#CBC3C0" d="M584.022,103.421c-1.022-0.765-1.164,1.006-2.025,0.706
			c0.546-0.78,0.971-1.659,1.791-2.218c0.586-0.086,0.709-1.213,1.53-0.709c0.288,0.177,0.152,0.489-0.039,0.723
			C584.86,102.422,584.441,102.922,584.022,103.421z"/>
		<path fill-rule="evenodd" fill="#87736E" d="M394.304,328.078c0.029-0.345,0.058-0.69,0.086-1.035
			c0.582,1.645,1.518,3.161,1.779,4.922C394.922,330.97,394.699,329.482,394.304,328.078z"/>
		<path fill-rule="evenodd" fill="#B1A4A1" d="M599.033,116.124c-0.931-1.164-1.154,0.785-1.901,0.431
			c0.368-0.528,0.735-1.056,1.104-1.584c0.478-0.385,0.845-1.175,1.627-0.444C599.86,115.201,599.839,115.866,599.033,116.124z"/>
		<path fill-rule="evenodd" fill="#B8ADA9" d="M585.279,101.922c-0.484-1.415-0.998,0.476-1.491-0.013
			c0.539-0.811,0.967-1.716,1.879-2.209c0.821-0.032,0.795,0.394,0.517,0.956C585.658,100.918,586.003,101.801,585.279,101.922z"/>
		<path fill-rule="evenodd" fill="#85706B" d="M592.921,107.813c-0.185-0.181-0.37-0.362-0.555-0.542
			c0.143-0.693,0.383-1.307,1.258-1.196c0.159,0.02,0.392,0.267,0.413,0.433C594.144,107.324,593.702,107.727,592.921,107.813z"/>
		<path fill-rule="evenodd" fill="#79635D" d="M395.274,308.904c-0.592,1.335-1.184,2.67-1.776,4.006
			C393.338,311.241,393.991,309.933,395.274,308.904z"/>
		<path fill-rule="evenodd" fill="#897570" d="M540.003,189.898c0.006-0.135,0.012-0.271,0.016-0.407
			c1.006-0.266,1.835-1.047,2.944-1.009c0.245,0.052,0.49,0.104,0.736,0.155C542.469,189.06,541.465,190.152,540.003,189.898z"/>
		<path fill-rule="evenodd" fill="#CDC4C2" d="M575.098,99.789c0.23-1.325,1.164-2.057,2.247-2.663
			C576.912,98.281,576.111,99.125,575.098,99.789z"/>
		<path fill-rule="evenodd" fill="#D0C8C6" d="M595.911,118.369c-0.186,1.359-1.133,2.083-2.232,2.68
			C594.104,119.89,594.878,119.022,595.911,118.369z"/>
		<path fill-rule="evenodd" fill="#897570" d="M536.009,190.798c1.124-0.629,2.364-0.765,3.617-0.844
			C538.569,190.874,537.3,190.882,536.009,190.798z"/>
		<path fill-rule="evenodd" fill="#9D8C88" d="M586.184,100.655c-0.023-0.399-0.139-0.748-0.516-0.956
			c0.32-0.433,0.689-1.197,1.236-0.496C587.365,99.795,586.895,100.395,586.184,100.655z"/>
		<path fill-rule="evenodd" fill="#5D423A" d="M599.862,114.526c-0.542,0.148-1.085,0.296-1.627,0.444
			c0.119-0.79,0.699-1.098,1.379-1.134C599.934,113.818,599.921,114.237,599.862,114.526z"/>
		<path fill-rule="evenodd" fill="#B2A5A1" d="M385.927,129.51c0.818,0.335,1.014,0.978,0.881,1.783
			C386.252,130.828,385.89,130.268,385.927,129.51z"/>
	</g>
</g>
</svg>
